<svg width="73" height="66" xmlns="http://www.w3.org/2000/svg" fill="none">
  <g>
    <title>Layer 1</title>
    <line id="svg_1" stroke-width="8" stroke="#177A31" y2="4" x2="69" y1="4" x1="4" />
    <line id="svg_2" stroke-width="8" stroke="#177A31" y2="58" x2="69" y1="58" x1="38" />
    <line id="svg_3" stroke-width="8" stroke="#177A31" y2="38" x2="8" y1="8" x1="8" />
    <line id="svg_4" stroke-width="8" stroke="#177A31" y2="7" x2="65" y1="62" x1="65" />
    <path id="svg_5" fill="#177A31" d="m5.83105,43.8906l1.3086,3.086l1.31347,-3.086l1.84571,0l-2.28516,4.5557l0,2.5537l-1.74316,0l0,-2.5537l-2.29004,-4.5557l1.85058,0zm11.00585,3.4131l0,0.2881c0,0.5436 -0.0765,1.0319 -0.2295,1.4648c-0.1497,0.4297 -0.3629,0.7976 -0.6396,1.1036c-0.2767,0.3027 -0.6039,0.5354 -0.9815,0.6982c-0.3776,0.1595 -0.7942,0.2393 -1.25,0.2393c-0.459,0 -0.87888,-0.0798 -1.25974,-0.2393c-0.3776,-0.1628 -0.70638,-0.3955 -0.98633,-0.6982c-0.27669,-0.306 -0.49153,-0.6739 -0.64453,-1.1036c-0.14974,-0.4329 -0.22461,-0.9212 -0.22461,-1.4648l0,-0.2881c0,-0.5436 0.07487,-1.0319 0.22461,-1.4648c0.153,-0.433 0.36621,-0.8008 0.63965,-1.1035c0.27669,-0.306 0.60384,-0.5388 0.98145,-0.6983c0.38086,-0.1628 0.8008,-0.2441 1.2598,-0.2441c0.4557,0 0.8724,0.0813 1.25,0.2441c0.3808,0.1595 0.7096,0.3923 0.9863,0.6983c0.2767,0.3027 0.4915,0.6705 0.6445,1.1035c0.153,0.4329 0.2295,0.9212 0.2295,1.4648zm-1.7383,0.2881l0,-0.2979c0,-0.3515 -0.0309,-0.6608 -0.0927,-0.9277c-0.0586,-0.2702 -0.1465,-0.4964 -0.2637,-0.6787c-0.1172,-0.1823 -0.2621,-0.319 -0.4346,-0.4102c-0.1693,-0.0944 -0.3629,-0.1416 -0.581,-0.1416c-0.2279,0 -0.4265,0.0472 -0.5957,0.1416c-0.16931,0.0912 -0.31091,0.2279 -0.42485,0.4102c-0.11393,0.1823 -0.20019,0.4085 -0.25878,0.6787c-0.05534,0.2669 -0.08301,0.5762 -0.08301,0.9277l0,0.2979c0,0.3483 0.02767,0.6575 0.08301,0.9277c0.05859,0.267 0.14485,0.4932 0.25878,0.6787c0.11719,0.1856 0.26042,0.3256 0.42965,0.42c0.1726,0.0944 0.3728,0.1416 0.6006,0.1416c0.2181,0 0.4118,-0.0472 0.5811,-0.1416c0.1693,-0.0944 0.3109,-0.2344 0.4248,-0.42c0.1172,-0.1855 0.2051,-0.4117 0.2637,-0.6787c0.0618,-0.2702 0.0927,-0.5794 0.0927,-0.9277zm6.4844,-3.7012l1.7139,0l0,4.6436c0,0.5534 -0.1156,1.0221 -0.3467,1.4062c-0.2311,0.3809 -0.555,0.669 -0.9717,0.8643c-0.4167,0.1953 -0.9066,0.293 -1.4697,0.293c-0.5567,0 -1.0466,-0.0977 -1.4697,-0.293c-0.42,-0.1953 -0.7487,-0.4834 -0.9864,-0.8643c-0.2343,-0.3841 -0.3515,-0.8528 -0.3515,-1.4062l0,-4.6436l1.7187,0l0,4.6436c0,0.2929 0.0423,0.5322 0.127,0.7178c0.0846,0.1822 0.2083,0.3157 0.3711,0.4003c0.1627,0.0847 0.3597,0.127 0.5908,0.127c0.2344,0 0.4313,-0.0423 0.5908,-0.127c0.1595,-0.0846 0.28,-0.2181 0.3613,-0.4003c0.0814,-0.1856 0.1221,-0.4249 0.1221,-0.7178l0,-4.6436zm2.793,0l2.7978,0c0.5469,0 1.0222,0.0814 1.4258,0.2442c0.4037,0.1627 0.7145,0.4036 0.9326,0.7226c0.2214,0.319 0.3321,0.7129 0.3321,1.1817c0,0.4069 -0.0635,0.747 -0.1905,1.0205c-0.1269,0.2734 -0.3043,0.4996 -0.5322,0.6787c-0.2246,0.1758 -0.4867,0.3206 -0.7861,0.4346l-0.5616,0.3173l-2.3486,0l-0.0098,-1.3232l1.7383,0c0.2181,0 0.3988,-0.0391 0.542,-0.1172c0.1432,-0.0781 0.2507,-0.1888 0.3223,-0.332c0.0749,-0.1465 0.1123,-0.3207 0.1123,-0.5225c0,-0.2051 -0.0374,-0.3808 -0.1123,-0.5273c-0.0749,-0.1465 -0.1856,-0.2588 -0.332,-0.3369c-0.1433,-0.0782 -0.3207,-0.1172 -0.5323,-0.1172l-1.084,0l0,5.7861l-1.7138,0l0,-7.1094zm3.8916,7.1094l-1.5723,-3.1445l1.8164,-0.0098l1.5918,3.0811l0,0.0732l-1.8359,0z" />
    <path id="svg_6" fill="#177A31" d="m31.91995,20.5586l4.5801,10.8008l4.5971,-10.8008l6.46,0l-7.998,15.9448l0,8.938l-6.1011,0l0,-8.938l-8.0152,-15.9448l6.4771,0z" />
    <path id="svg_7" fill="#177A31" d="m6.18262,61.3555l1.41601,-6.4649l0.84473,0l0.45898,0.5518l-1.50879,6.5576l-0.93261,0l-0.27832,-0.6445zm-0.37598,-6.4649l1.19629,6.5137l-0.30762,0.5957l-1.0791,0l-1.50879,-7.1094l1.69922,0zm3.87207,6.4795l1.18652,-6.4795l1.69434,0l-1.50879,7.1094l-1.07422,0l-0.29785,-0.6299zm-0.625,-6.4795l1.4502,6.5039l-0.29297,0.6055l-0.93262,0l-1.54297,-6.5674l0.47852,-0.542l0.83984,0zm10.19529,3.4131l0,0.2881c0,0.5436 -0.0765,1.0319 -0.2295,1.4648c-0.1497,0.4297 -0.3629,0.7976 -0.6396,1.1036c-0.2767,0.3027 -0.6039,0.5354 -0.9815,0.6982c-0.3776,0.1595 -0.7942,0.2393 -1.25,0.2393c-0.4589,0 -0.8789,-0.0798 -1.2597,-0.2393c-0.3776,-0.1628 -0.7064,-0.3955 -0.9864,-0.6982c-0.2766,-0.306 -0.4915,-0.6739 -0.6445,-1.1036c-0.1497,-0.4329 -0.2246,-0.9212 -0.2246,-1.4648l0,-0.2881c0,-0.5436 0.0749,-1.0319 0.2246,-1.4648c0.153,-0.433 0.3662,-0.8008 0.6397,-1.1035c0.2767,-0.306 0.6038,-0.5388 0.9814,-0.6983c0.3809,-0.1628 0.8008,-0.2441 1.2598,-0.2441c0.4557,0 0.8724,0.0813 1.25,0.2441c0.3808,0.1595 0.7096,0.3923 0.9863,0.6983c0.2767,0.3027 0.4915,0.6705 0.6445,1.1035c0.153,0.4329 0.2295,0.9212 0.2295,1.4648zm-1.7383,0.2881l0,-0.2979c0,-0.3515 -0.0309,-0.6608 -0.0927,-0.9277c-0.0586,-0.2702 -0.1465,-0.4964 -0.2637,-0.6787c-0.1172,-0.1823 -0.262,-0.319 -0.4346,-0.4102c-0.1692,-0.0944 -0.3629,-0.1416 -0.581,-0.1416c-0.2279,0 -0.4265,0.0472 -0.5957,0.1416c-0.1693,0.0912 -0.3109,0.2279 -0.4248,0.4102c-0.114,0.1823 -0.2002,0.4085 -0.2588,0.6787c-0.0554,0.2669 -0.083,0.5762 -0.083,0.9277l0,0.2979c0,0.3483 0.0276,0.6575 0.083,0.9277c0.0586,0.267 0.1448,0.4932 0.2588,0.6787c0.1172,0.1856 0.2604,0.3256 0.4297,0.42c0.1725,0.0944 0.3727,0.1416 0.6005,0.1416c0.2181,0 0.4118,-0.0472 0.5811,-0.1416c0.1693,-0.0944 0.3109,-0.2344 0.4248,-0.42c0.1172,-0.1855 0.2051,-0.4117 0.2637,-0.6787c0.0618,-0.2702 0.0927,-0.5794 0.0927,-0.9277zm2.627,-3.7012l2.7978,0c0.5469,0 1.0222,0.0814 1.4258,0.2442c0.4037,0.1627 0.7145,0.4036 0.9326,0.7226c0.2214,0.319 0.3321,0.7129 0.3321,1.1817c0,0.4069 -0.0635,0.747 -0.1905,1.0205c-0.1269,0.2734 -0.3043,0.4996 -0.5322,0.6787c-0.2246,0.1758 -0.4866,0.3206 -0.7861,0.4346l-0.5615,0.3173l-2.3487,0l-0.0097,-1.3232l1.7382,0c0.2181,0 0.3988,-0.0391 0.542,-0.1172c0.1433,-0.0781 0.2507,-0.1888 0.3223,-0.332c0.0749,-0.1465 0.1123,-0.3207 0.1123,-0.5225c0,-0.2051 -0.0374,-0.3808 -0.1123,-0.5273c-0.0749,-0.1465 -0.1855,-0.2588 -0.332,-0.3369c-0.1433,-0.0782 -0.3207,-0.1172 -0.5323,-0.1172l-1.0839,0l0,5.7861l-1.7139,0l0,-7.1094zm3.8916,7.1094l-1.5723,-3.1445l1.8164,-0.0098l1.5918,3.0811l0,0.0732l-1.8359,0zm4.3457,-7.1094l0,7.1094l-1.7139,0l0,-7.1094l1.7139,0zm4.2432,0l-2.7539,3.6035l-1.6114,1.7627l-0.3125,-1.5722l1.0303,-1.5625l1.5332,-2.2315l2.1143,0zm-2.0264,7.1094l-1.8359,-3.2031l1.333,-0.9815l2.5293,4.1846l-2.0264,0z" />
  </g>
</svg>
